<?xml version="1.0" standalone="no"?>
<!DOCTYPE svg PUBLIC "-//W3C//DTD SVG 20010904//EN"
 "http://www.w3.org/TR/2001/REC-SVG-20010904/DTD/svg10.dtd">
<svg version="1.0" xmlns="http://www.w3.org/2000/svg"
 width="2000.000000pt" height="2000.000000pt" viewBox="0 0 2000.000000 2000.000000"
 preserveAspectRatio="xMidYMid meet">

<g transform="translate(0.000000,2000.000000) scale(0.100000,-0.100000)"
fill="#000000" stroke="none">
<path d="M5383 15265 c-177 -56 -322 -188 -382 -349 -34 -91 -85 -335 -121
-581 -49 -329 -54 -414 -54 -830 0 -417 7 -516 54 -830 28 -183 43 -261 96
-501 l18 -81 -83 -139 c-156 -263 -324 -618 -441 -934 -24 -63 -44 -117 -46
-119 -3 -3 -399 129 -554 185 -160 57 -331 114 -345 114 -32 0 -86 -33 -100
-61 -31 -59 -10 -130 48 -160 11 -7 64 -27 116 -45 53 -18 209 -71 346 -119
138 -48 285 -99 329 -113 43 -15 81 -32 83 -40 3 -7 -8 -65 -25 -130 -37 -140
-85 -382 -108 -547 -9 -66 -22 -123 -28 -127 -6 -4 -318 -8 -693 -8 l-681 0
-30 -30 c-17 -16 -33 -43 -37 -59 -7 -35 13 -88 45 -116 22 -20 38 -20 701
-23 l679 -2 0 -276 c0 -152 5 -341 11 -421 6 -79 9 -147 6 -150 -3 -3 -43 -18
-89 -33 -84 -29 -226 -78 -488 -169 -112 -39 -151 -57 -172 -81 -63 -69 -9
-190 84 -190 20 0 297 92 602 200 48 17 92 28 96 23 5 -4 16 -46 25 -93 139
-720 473 -1384 977 -1940 137 -152 453 -440 558 -509 14 -9 54 -38 90 -64 322
-240 959 -551 1553 -758 418 -146 929 -274 1347 -338 319 -49 339 -52 730 -81
534 -41 1151 -12 1730 81 882 142 1750 436 2502 848 643 352 1189 885 1558
1521 80 138 141 257 190 370 18 41 38 89 45 105 83 190 171 480 221 720 14 72
30 134 34 138 4 5 48 -6 96 -23 49 -17 159 -55 244 -84 85 -29 195 -67 245
-85 101 -35 124 -37 165 -16 63 33 78 131 28 182 -24 23 -68 40 -571 212 -92
32 -170 61 -173 64 -4 3 -1 77 5 164 6 87 11 276 11 420 l0 263 679 2 679 3
26 24 c41 38 52 90 31 135 -33 69 -1 66 -747 66 -370 0 -678 4 -685 8 -6 4
-19 60 -27 125 -21 147 -67 385 -107 545 -17 67 -29 129 -26 136 3 7 41 25 84
39 43 14 184 62 313 107 129 45 289 100 355 123 145 49 185 80 185 146 0 31
-7 49 -31 75 -48 56 -73 55 -245 -4 -82 -28 -183 -62 -224 -76 -41 -13 -82
-27 -90 -30 -30 -13 -414 -144 -421 -144 -3 0 -13 19 -22 43 -8 23 -31 85 -50
137 -95 259 -269 623 -416 870 -45 74 -81 143 -81 154 0 10 15 84 34 165 49
216 77 383 113 681 25 209 25 901 0 1110 -20 167 -43 333 -57 405 -5 28 -19
102 -30 165 -51 271 -95 376 -205 485 -114 113 -237 165 -395 165 -117 0 -256
-35 -495 -125 -474 -178 -867 -430 -1237 -793 l-158 -155 -102 38 c-579 216
-1276 367 -1968 427 -194 17 -831 16 -1025 0 -566 -50 -1131 -159 -1630 -315
-117 -37 -217 -71 -329 -111 -54 -20 -102 -36 -105 -36 -4 0 -77 69 -162 153
-177 176 -316 290 -514 422 -305 204 -617 349 -970 451 -135 39 -160 44 -250
43 -55 -1 -119 -7 -142 -14z m317 -250 c608 -175 1148 -517 1555 -985 49 -57
83 -80 117 -80 14 0 106 29 203 65 920 341 1982 497 2890 425 695 -55 1344
-198 1986 -436 81 -30 159 -54 174 -54 39 0 74 24 125 87 25 30 102 110 171
177 395 384 852 649 1379 802 103 29 136 35 188 31 120 -9 230 -84 281 -192
22 -48 80 -308 110 -495 115 -724 83 -1468 -95 -2172 -13 -53 -24 -107 -24
-120 0 -13 38 -86 83 -163 156 -261 252 -448 363 -707 76 -179 146 -371 137
-379 -5 -3 -37 -17 -73 -29 -328 -112 -522 -181 -537 -189 -60 -32 -79 -105
-41 -161 31 -46 64 -62 113 -55 22 3 168 50 325 104 206 72 287 97 292 88 21
-33 97 -390 127 -599 l17 -117 -241 -3 c-270 -3 -283 -6 -312 -76 -20 -47 -5
-100 38 -136 l31 -26 252 0 253 0 6 -107 c4 -58 7 -154 7 -212 0 -111 -19
-433 -26 -440 -2 -2 -176 55 -386 128 -211 72 -391 131 -401 131 -24 0 -68
-23 -88 -46 -40 -46 -28 -135 23 -168 14 -9 123 -50 244 -92 120 -42 296 -103
389 -135 94 -33 175 -61 181 -64 22 -7 -48 -335 -122 -570 -259 -824 -814
-1547 -1556 -2028 -329 -214 -885 -475 -1353 -637 -894 -308 -1914 -463 -2785
-421 -1137 55 -2147 314 -3129 805 -563 281 -965 595 -1330 1039 -321 389
-562 845 -701 1327 -49 166 -113 471 -102 480 7 6 74 30 580 206 123 42 234
85 247 96 37 29 51 85 32 131 -16 38 -67 77 -102 77 -11 0 -192 -59 -403 -131
-210 -73 -384 -130 -387 -127 -17 17 -31 515 -18 676 l6 82 254 0 255 0 34 34
c30 30 34 40 34 84 0 42 -5 55 -29 80 -17 16 -44 32 -62 36 -17 3 -129 6 -249
6 l-217 0 13 98 c18 129 68 381 103 517 19 77 32 110 42 108 8 0 133 -42 279
-93 327 -113 325 -113 366 -106 38 8 79 52 89 95 8 37 -16 94 -47 115 -12 8
-156 61 -318 116 -162 56 -299 105 -303 109 -10 10 89 277 168 456 106 240
207 432 336 640 37 61 71 122 74 136 4 15 -6 74 -24 145 -185 736 -209 1530
-71 2288 61 329 89 409 172 481 106 92 201 104 388 50z"/>
<path d="M7445 11355 c-255 -64 -474 -282 -553 -550 -60 -200 -44 -424 43
-612 102 -221 303 -389 522 -437 424 -93 829 207 904 669 14 91 7 253 -16 340
-72 275 -256 484 -505 571 -95 33 -298 43 -395 19z m465 -406 c59 -26 105 -72
138 -134 35 -67 38 -187 6 -256 -84 -181 -295 -225 -431 -90 -78 78 -105 213
-63 323 25 69 94 141 154 162 60 21 143 19 196 -5z"/>
<path d="M12245 11360 c-243 -51 -468 -248 -558 -490 -63 -167 -74 -386 -27
-550 98 -342 393 -580 722 -580 346 0 638 237 734 595 29 107 27 352 -4 458
-63 220 -217 411 -407 502 -49 25 -119 51 -155 59 -69 17 -237 20 -305 6z m55
-413 c167 -81 212 -321 88 -462 -131 -148 -341 -119 -436 60 -23 43 -27 62
-27 135 0 73 4 92 27 136 31 59 102 126 150 142 46 15 156 9 198 -11z"/>
<path d="M9870 10124 c-131 -10 -298 -43 -355 -71 -98 -49 -152 -163 -125
-263 35 -131 264 -356 411 -405 28 -10 52 -22 55 -29 2 -6 31 -184 64 -396 71
-449 69 -440 80 -440 5 0 12 15 15 33 17 106 125 796 125 804 0 5 19 15 43 22
55 16 145 70 208 123 61 52 173 186 201 242 29 55 29 146 1 201 -50 95 -134
136 -338 164 -83 12 -307 20 -385 15z m353 -134 c66 -25 90 -57 66 -86 -73
-88 -457 -97 -563 -13 -39 31 -31 59 25 87 69 34 121 41 274 38 116 -3 150 -7
198 -26z"/>
</g>
</svg>
